<svg t="1592818233077" class="icon" viewBox="0 0 1024 1024" version="1.1" xmlns="http://www.w3.org/2000/svg" p-id="2820" width="200" height="200"><path d="M328.32 472.96H715.2a21.12 21.12 0 0 0 20.8-21.12v-368A21.12 21.12 0 0 0 715.2 64H328.32a21.12 21.12 0 0 0-21.12 20.48v368a21.12 21.12 0 0 0 21.12 20.48z m76.32-272a21.44 21.44 0 0 1 21.28-21.28h192a21.28 21.28 0 0 1 21.12 21.28v37.28H425.92a21.28 21.28 0 0 1-21.28-21.12zM461.6 531.52h-368a21.12 21.12 0 0 0-21.12 21.12v386.88A21.12 21.12 0 0 0 94.24 960h368a21.12 21.12 0 0 0 21.12-21.12V552.64a21.12 21.12 0 0 0-21.76-21.12z m-76.32 154.4a21.28 21.28 0 0 1-21.28 21.12H192a21.28 21.28 0 0 1-21.28-21.12v-16A21.44 21.44 0 0 1 192 648.48h172a21.44 21.44 0 0 1 21.28 21.28zM929.76 531.52h-368a21.12 21.12 0 0 0-21.12 21.12v386.88A21.12 21.12 0 0 0 562.4 960h368a21.12 21.12 0 0 0 21.12-21.12V552.64a21.12 21.12 0 0 0-21.76-21.12z m-76.32 154.4A21.28 21.28 0 0 1 832 707.04H660a21.28 21.28 0 0 1-21.28-21.12v-16a21.44 21.44 0 0 1 21.28-21.28H832a21.44 21.44 0 0 1 21.28 21.28z" fill="#dbdbdb"></path></svg>
